<svg width="15" height="15" viewBox="0 0 15 15" fill="none" xmlns="http://www.w3.org/2000/svg">
<path fill-rule="evenodd" clip-rule="evenodd" d="M7.19827 14.6185C9.10565 14.6185 9.34465 14.6103 10.0945 14.5764C10.6771 14.5645 11.2535 14.454 11.7992 14.2495C12.2658 14.0694 12.6897 13.7936 13.0434 13.4399C13.3971 13.0862 13.6729 12.6623 13.853 12.1957C14.0575 11.65 14.168 11.0736 14.1799 10.491C14.2138 9.74114 14.222 9.50213 14.222 7.59476C14.222 5.68739 14.2138 5.44838 14.1799 4.69855C14.168 4.11593 14.0575 3.53954 13.853 2.99387C13.6729 2.52719 13.3971 2.10336 13.0434 1.74965C12.6897 1.39593 12.2658 1.12015 11.7992 0.940043C11.2535 0.735517 10.6771 0.624992 10.0945 0.613167C9.34465 0.57919 9.10565 0.570989 7.19827 0.570989C5.2909 0.570989 5.05189 0.57919 4.30206 0.613167C3.71945 0.624992 3.14305 0.735517 2.59738 0.940043C2.1307 1.12015 1.70688 1.39593 1.35316 1.74965C0.999447 2.10336 0.723668 2.52719 0.543558 2.99387C0.339031 3.53954 0.228505 4.11593 0.216679 4.69855C0.182703 5.44838 0.1745 5.68739 0.1745 7.59476C0.1745 9.50213 0.182703 9.74114 0.216679 10.491C0.228505 11.0736 0.339031 11.65 0.543558 12.1957C0.723668 12.6623 0.999447 13.0862 1.35316 13.4399C1.70688 13.7936 2.1307 14.0694 2.59738 14.2495C3.14305 14.454 3.71945 14.5645 4.30206 14.5764C5.05189 14.6103 5.2909 14.6185 7.19827 14.6185ZM10.0359 13.3122C9.29544 13.3462 9.07401 13.3532 7.19827 13.3532C5.32253 13.3532 5.1011 13.3462 4.36064 13.3122C3.91487 13.3071 3.47334 13.225 3.05548 13.0697C2.75269 12.953 2.47771 12.7742 2.24826 12.5448C2.01882 12.3153 1.84001 12.0403 1.72336 11.7376C1.56801 11.3197 1.48597 10.8782 1.48084 10.4324C1.44687 9.69193 1.43983 9.4705 1.43983 7.59476C1.43983 5.71902 1.44687 5.49759 1.48084 4.75713C1.48597 4.31136 1.56801 3.86982 1.72336 3.45196C1.84001 3.14917 2.01882 2.87419 2.24826 2.64475C2.47771 2.41531 2.75269 2.2365 3.05548 2.11985C3.47334 1.9645 3.91487 1.88246 4.36064 1.87733C5.1011 1.84335 5.32253 1.83632 7.19827 1.83632C9.07401 1.83632 9.29544 1.84335 10.0359 1.87733C10.4817 1.88246 10.9232 1.9645 11.3411 2.11985C11.6439 2.2365 11.9188 2.41531 12.1483 2.64475C12.3777 2.87419 12.5565 3.14917 12.6732 3.45196C12.8285 3.86982 12.9106 4.31136 12.9157 4.75713C12.9497 5.49759 12.9567 5.71902 12.9567 7.59476C12.9567 9.4705 12.9497 9.69193 12.9157 10.4324C12.9106 10.8782 12.8285 11.3197 12.6732 11.7376C12.5565 12.0403 12.3777 12.3153 12.1483 12.5448C11.9188 12.7742 11.6439 12.953 11.3411 13.0697C10.9232 13.225 10.4817 13.3071 10.0359 13.3122ZM7.19827 5.25389C7.66172 5.25389 8.11475 5.39132 8.50009 5.6488C8.88543 5.90627 9.18576 6.27223 9.36312 6.7004C9.54047 7.12856 9.58687 7.5997 9.49646 8.05424C9.40604 8.50878 9.18288 8.9263 8.85517 9.254C8.52747 9.58171 8.10995 9.80487 7.65541 9.89529C7.20087 9.9857 6.72973 9.9393 6.30157 9.76195C5.8734 9.58459 5.50744 9.28426 5.24996 8.89892C4.99249 8.51358 4.85506 8.06054 4.85506 7.5971C4.85506 6.97564 5.10193 6.37964 5.54137 5.9402C5.98081 5.50076 6.57681 5.25389 7.19827 5.25389ZM7.19827 11.2021C7.91174 11.2021 8.60919 10.9906 9.20242 10.5942C9.79565 10.1978 10.258 9.6344 10.531 8.97524C10.8041 8.31608 10.8755 7.59076 10.7363 6.891C10.5971 6.19123 10.2536 5.54846 9.74907 5.04396C9.24457 4.53946 8.6018 4.19589 7.90204 4.0567C7.20227 3.91751 6.47695 3.98895 5.81779 4.26198C5.15863 4.53502 4.59523 4.99738 4.19885 5.59061C3.80247 6.18384 3.5909 6.88129 3.5909 7.59476C3.5909 8.06849 3.68421 8.53757 3.86549 8.97524C4.04678 9.41291 4.3125 9.81058 4.64747 10.1456C5.32399 10.8221 6.24154 11.2021 7.19827 11.2021ZM11.791 11.3439C11.791 11.1771 11.7415 11.014 11.6488 10.8752C11.5561 10.7365 11.4244 10.6284 11.2702 10.5646C11.1161 10.5007 10.9465 10.484 10.7828 10.5165C10.6192 10.5491 10.4689 10.6294 10.3509 10.7474C10.233 10.8654 10.1526 11.0157 10.1201 11.1793C10.0875 11.343 10.1042 11.5126 10.1681 11.6667C10.2319 11.8208 10.34 11.9526 10.4788 12.0453C10.6175 12.138 10.7806 12.1874 10.9474 12.1874C11.1711 12.1874 11.3857 12.0986 11.5439 11.9404C11.7021 11.7822 11.791 11.5676 11.791 11.3439Z" fill="white"/>
</svg>
