<svg width="15" height="15" viewBox="0 0 15 15" fill="none" xmlns="http://www.w3.org/2000/svg">
<path d="M0.586872 14.4959L4.13918 13.5235C5.44647 14.2767 6.96574 14.5776 8.46144 14.3795C9.95714 14.1815 11.3457 13.4955 12.4119 12.4279C13.478 11.3604 14.1622 9.97089 14.3583 8.47493C14.5545 6.97898 14.2516 5.4601 13.4967 4.1538C12.7417 2.84749 11.5769 1.82673 10.1828 1.24977C8.78875 0.672814 7.24327 0.571896 5.78599 0.96266C4.32871 1.35343 3.04106 2.21404 2.12267 3.41108C1.20428 4.60812 0.706449 6.07471 0.706374 7.58347C0.706176 8.72761 0.992991 9.85351 1.54056 10.8581L0.586872 14.4959ZM2.78129 10.6964L2.65827 10.4879C2.13794 9.61016 1.86355 8.60852 1.86392 7.58816C1.86415 6.32534 2.284 5.09841 3.05747 4.10019C3.83094 3.10197 4.91419 2.38907 6.13695 2.07353C7.35971 1.758 8.65265 1.85772 9.81256 2.35703C10.9725 2.85634 11.9336 3.72692 12.5448 4.83195C13.1561 5.93697 13.3828 7.21378 13.1894 8.4617C12.996 9.70961 12.3933 10.8579 11.4763 11.726C10.5592 12.5941 9.37962 13.1329 8.12298 13.2577C6.86634 13.3824 5.60387 13.0861 4.53401 12.4152L4.31843 12.2793L2.2154 12.8545L2.78129 10.6964Z" fill="white"/>
<path fill-rule="evenodd" clip-rule="evenodd" d="M5.93057 4.13545C6.00204 4.17762 6.04773 4.29244 6.13091 4.46349C6.2141 4.63455 6.63119 5.47693 6.68743 5.6351C6.74366 5.79327 6.77413 5.90574 6.6019 6.02056C6.42967 6.13538 6.04539 6.46225 5.93057 6.56301C5.81575 6.66377 5.80169 6.76219 5.88722 6.93324C6.08928 7.43807 6.37704 7.9042 6.73781 8.31105C7.08418 8.68546 7.48414 9.00645 7.92464 9.26356C8.0957 9.36315 8.18825 9.27411 8.27612 9.18858C8.36399 9.10305 8.47647 9.01752 8.57605 8.932C8.66271 8.86165 8.75897 8.80405 8.86193 8.76094C8.90909 8.73794 8.96127 8.72718 9.01369 8.72963C9.0661 8.73209 9.11705 8.74769 9.16186 8.775C9.24738 8.81718 10.0909 9.16046 10.4342 9.30222C10.7775 9.44398 10.7224 9.58341 10.7283 9.68768C10.7342 9.79196 10.7283 9.90209 10.7283 10.0169C10.7248 10.1015 10.7044 10.1845 10.6681 10.261C10.6319 10.3375 10.5806 10.4059 10.5174 10.4621C10.3338 10.6558 10.1119 10.8092 9.86586 10.9125C9.61977 11.0158 9.35488 11.0667 9.08805 11.062C8.24566 11.062 7.4314 10.4481 7.31658 10.359C7.20176 10.27 5.47247 9.15109 4.73085 7.43C4.59293 7.11108 4.47247 6.78489 4.36999 6.45288C4.26312 6.10389 4.23984 5.73466 4.30204 5.37501C4.35125 5.04579 4.71562 4.36157 5.12216 4.21863C5.52871 4.0757 5.8591 4.08741 5.93057 4.13545Z" fill="white"/>
</svg>
