<svg width="15" height="11" viewBox="0 0 15 11" fill="none" xmlns="http://www.w3.org/2000/svg">
<path d="M14.6404 9.10957C14.5584 9.41447 14.3975 9.69239 14.174 9.91534C13.9504 10.1383 13.672 10.2984 13.3669 10.3796C12.2469 10.6795 7.75609 10.6795 7.75609 10.6795C7.75609 10.6795 3.26532 10.6795 2.14527 10.3796C1.8409 10.2977 1.56338 10.1372 1.34049 9.91435C1.11761 9.69146 0.957179 9.41394 0.875255 9.10957C0.575324 7.98952 0.575317 5.65334 0.575317 5.65334C0.575317 5.65334 0.575324 3.31716 0.875255 2.1971C0.957179 1.89273 1.11761 1.61521 1.34049 1.39232C1.56338 1.16944 1.8409 1.00901 2.14527 0.927082C3.26532 0.627151 7.75609 0.627151 7.75609 0.627151C7.75609 0.627151 12.2469 0.627151 13.3669 0.927082C13.6712 1.00897 13.9486 1.16941 14.1713 1.39232C14.394 1.61522 14.5541 1.89276 14.6357 2.1971C14.9357 3.31716 14.9357 5.65334 14.9357 5.65334C14.9357 5.65334 14.9404 7.98952 14.6404 9.10957ZM6.32204 3.49875V7.80792L10.0548 5.65334L6.32204 3.49875Z" fill="white"/>
</svg>
